<mxfile host="app.diagrams.net" modified="2024-04-20T04:23:55.416Z" agent="Mozilla/5.0 (Windows NT 10.0; Win64; x64) AppleWebKit/537.36 (KHTML, like Gecko) Chrome/123.0.0.0 Safari/537.36" etag="9fwA_XG09sQcJSMAmyFl" version="24.2.5" type="device">
  <diagram name="Page-1" id="ibWj5uC4A8l8xKjf7No7">
    <mxGraphModel dx="1050" dy="583" grid="1" gridSize="10" guides="1" tooltips="1" connect="1" arrows="1" fold="1" page="1" pageScale="1" pageWidth="850" pageHeight="1100" math="0" shadow="0">
      <root>
        <mxCell id="0" />
        <mxCell id="1" parent="0" />
        <mxCell id="m4SEUwUJNjOx90QzOkhb-1" value="" style="rounded=0;whiteSpace=wrap;html=1;fillColor=#f5f5f5;fontColor=#333333;strokeColor=#666666;" vertex="1" parent="1">
          <mxGeometry x="80" y="120" width="690" height="370" as="geometry" />
        </mxCell>
        <mxCell id="m4SEUwUJNjOx90QzOkhb-4" style="edgeStyle=orthogonalEdgeStyle;rounded=0;orthogonalLoop=1;jettySize=auto;html=1;entryX=0;entryY=0.5;entryDx=0;entryDy=0;" edge="1" parent="1" source="m4SEUwUJNjOx90QzOkhb-2" target="m4SEUwUJNjOx90QzOkhb-3">
          <mxGeometry relative="1" as="geometry">
            <Array as="points">
              <mxPoint x="160" y="230" />
            </Array>
          </mxGeometry>
        </mxCell>
        <mxCell id="m4SEUwUJNjOx90QzOkhb-2" value="&lt;b&gt;Script-1&lt;/b&gt;" style="rounded=0;whiteSpace=wrap;html=1;fillColor=#dae8fc;gradientColor=#7ea6e0;strokeColor=#6c8ebf;" vertex="1" parent="1">
          <mxGeometry x="110" y="300" width="120" height="60" as="geometry" />
        </mxCell>
        <mxCell id="m4SEUwUJNjOx90QzOkhb-5" style="edgeStyle=orthogonalEdgeStyle;rounded=0;orthogonalLoop=1;jettySize=auto;html=1;entryX=1;entryY=0.75;entryDx=0;entryDy=0;exitX=0.5;exitY=1;exitDx=0;exitDy=0;" edge="1" parent="1" source="m4SEUwUJNjOx90QzOkhb-3" target="m4SEUwUJNjOx90QzOkhb-2">
          <mxGeometry relative="1" as="geometry">
            <mxPoint x="335" y="240" as="sourcePoint" />
            <mxPoint x="305" y="340" as="targetPoint" />
          </mxGeometry>
        </mxCell>
        <mxCell id="m4SEUwUJNjOx90QzOkhb-3" value="&lt;b&gt;Script-2&lt;/b&gt;" style="rounded=1;whiteSpace=wrap;html=1;fillColor=#d5e8d4;gradientColor=#97d077;strokeColor=#82b366;" vertex="1" parent="1">
          <mxGeometry x="260" y="200" width="120" height="60" as="geometry" />
        </mxCell>
        <mxCell id="m4SEUwUJNjOx90QzOkhb-6" value="&lt;b&gt;PID-1&lt;/b&gt;" style="text;html=1;align=center;verticalAlign=middle;resizable=0;points=[];autosize=1;strokeColor=none;fillColor=none;" vertex="1" parent="1">
          <mxGeometry x="140" y="360" width="50" height="30" as="geometry" />
        </mxCell>
        <mxCell id="m4SEUwUJNjOx90QzOkhb-7" value="&lt;b&gt;PID-2&lt;/b&gt;" style="text;html=1;align=center;verticalAlign=middle;resizable=0;points=[];autosize=1;strokeColor=none;fillColor=none;" vertex="1" parent="1">
          <mxGeometry x="295" y="170" width="50" height="30" as="geometry" />
        </mxCell>
        <mxCell id="m4SEUwUJNjOx90QzOkhb-8" value="" style="rounded=0;whiteSpace=wrap;html=1;fillColor=#f8cecc;gradientColor=#ea6b66;strokeColor=#b85450;" vertex="1" parent="1">
          <mxGeometry x="450" y="280" width="160" height="100" as="geometry" />
        </mxCell>
        <mxCell id="m4SEUwUJNjOx90QzOkhb-9" value="&lt;b&gt;./script-2.sh&lt;/b&gt;" style="text;html=1;align=center;verticalAlign=middle;resizable=0;points=[];autosize=1;strokeColor=none;fillColor=none;" vertex="1" parent="1">
          <mxGeometry x="120" y="410" width="90" height="30" as="geometry" />
        </mxCell>
        <mxCell id="m4SEUwUJNjOx90QzOkhb-10" value="&lt;b&gt;Script-2&lt;/b&gt;" style="rounded=1;whiteSpace=wrap;html=1;fillColor=#d5e8d4;gradientColor=#97d077;strokeColor=#82b366;" vertex="1" parent="1">
          <mxGeometry x="510" y="310" width="90" height="50" as="geometry" />
        </mxCell>
        <mxCell id="m4SEUwUJNjOx90QzOkhb-11" value="&lt;b&gt;Script-1&lt;/b&gt;" style="text;html=1;align=center;verticalAlign=middle;resizable=0;points=[];autosize=1;strokeColor=none;fillColor=none;" vertex="1" parent="1">
          <mxGeometry x="490" y="280" width="70" height="30" as="geometry" />
        </mxCell>
        <mxCell id="m4SEUwUJNjOx90QzOkhb-12" value="&lt;b&gt;PID-1&lt;/b&gt;" style="text;html=1;align=center;verticalAlign=middle;resizable=0;points=[];autosize=1;strokeColor=none;fillColor=none;" vertex="1" parent="1">
          <mxGeometry x="500" y="380" width="50" height="30" as="geometry" />
        </mxCell>
        <mxCell id="m4SEUwUJNjOx90QzOkhb-13" value="&lt;b&gt;PID-1&lt;/b&gt;" style="text;html=1;align=center;verticalAlign=middle;resizable=0;points=[];autosize=1;strokeColor=none;fillColor=none;" vertex="1" parent="1">
          <mxGeometry x="550" y="280" width="50" height="30" as="geometry" />
        </mxCell>
        <mxCell id="m4SEUwUJNjOx90QzOkhb-14" value="&lt;b&gt;source ./script-2.sh&lt;/b&gt;" style="text;html=1;align=center;verticalAlign=middle;resizable=0;points=[];autosize=1;strokeColor=none;fillColor=none;" vertex="1" parent="1">
          <mxGeometry x="470" y="410" width="130" height="30" as="geometry" />
        </mxCell>
        <mxCell id="m4SEUwUJNjOx90QzOkhb-15" value="&lt;b&gt;How to call other script from current script&lt;/b&gt;" style="text;html=1;align=center;verticalAlign=middle;resizable=0;points=[];autosize=1;strokeColor=none;fillColor=none;" vertex="1" parent="1">
          <mxGeometry x="270" y="120" width="270" height="30" as="geometry" />
        </mxCell>
      </root>
    </mxGraphModel>
  </diagram>
</mxfile>
